<svg width="50" height="51" viewBox="0 0 50 51" fill="none" xmlns="http://www.w3.org/2000/svg">
<path d="M11 50.5C4.92487 50.5 0 45.5751 0 39.5V11.5C0 5.42487 4.92487 0.5 11 0.5H39C45.0751 0.5 50 5.42487 50 11.5V39.5C50 45.5751 45.0751 50.5 39 50.5H11ZM46 10.5C46 7.18629 43.3137 4.5 40 4.5H10C6.68629 4.5 4 7.18629 4 10.5V14.3494C4 15.5372 4.96285 16.5 6.15058 16.5C7.22869 16.5 8.09513 15.6769 8.51805 14.6852C9.06077 13.4126 9.95048 12.582 10.958 12.582C12.1581 12.582 13.1902 13.7573 13.6684 15.4538C13.8343 16.0423 14.339 16.5 14.9504 16.5C15.5641 16.5 16.07 16.0392 16.2337 15.4478C16.7087 13.732 17.7481 12.542 18.956 12.542C22.0059 12.542 24.1735 16.5 27.2234 16.5H30.6863C33.7363 16.5 35.904 12.542 38.954 12.542C39.9638 12.542 40.8543 13.3724 41.3977 14.6447C41.8299 15.6566 42.7122 16.5 43.8126 16.5C45.0207 16.5 46 15.5207 46 14.3126V10.5ZM46 20.6689C46 19.4711 45.0289 18.5 43.8311 18.5C42.7302 18.5 41.8495 19.3494 41.4308 20.3675C40.8908 21.6803 39.9848 22.542 38.956 22.542C35.866 22.542 33.6846 18.5 30.5945 18.5H27.3201C24.2303 18.5 22.0478 22.542 18.958 22.542C17.7266 22.542 16.6703 21.3043 16.2088 19.5356C16.0571 18.9541 15.5628 18.5 14.9618 18.5C14.3584 18.5 13.8629 18.9575 13.7136 19.5421C13.2575 21.3287 12.1968 22.582 10.958 22.582C9.91274 22.582 8.99423 21.6897 8.45877 20.3376C8.06137 19.3341 7.19746 18.5 6.11816 18.5C4.94833 18.5 4 19.4483 4 20.6182V25.5C4 29.366 7.13401 32.5 11 32.5H14.6487C17.6985 32.5 19.8663 28.542 22.916 28.542C24.1424 28.542 25.1966 29.7701 25.6616 31.5276C25.8065 32.0752 26.2745 32.5 26.8409 32.5C27.4142 32.5 27.8859 32.0653 28.0236 31.5087C28.4724 29.6946 29.5418 28.416 30.794 28.416C32.0164 28.416 33.0663 29.641 33.5322 31.3942C33.6968 32.0136 34.2226 32.5 34.8634 32.5C35.4996 32.5 36.0228 32.0201 36.1925 31.4069C36.6676 29.6899 37.7089 28.5 38.918 28.5C39.9327 28.5 40.8292 29.338 41.372 30.6222C41.8044 31.6451 42.6929 32.5 43.8034 32.5C45.0166 32.5 46 31.5166 46 30.3034V20.6689ZM46 36.6977C46 35.484 45.016 34.5 43.8023 34.5C42.6913 34.5 41.8023 35.3553 41.3694 36.3785C40.8265 37.6617 39.9303 38.5 38.916 38.5C37.712 38.5 36.6743 37.3187 36.1965 35.6141C36.0215 34.9895 35.4883 34.5 34.8396 34.5C34.1964 34.5 33.6662 34.9817 33.4861 35.5992C33.0003 37.2655 31.9777 38.416 30.792 38.416C29.5772 38.416 28.5322 37.2084 28.0613 35.4758C27.9118 34.9258 27.4403 34.5 26.8703 34.5C26.2932 34.5 25.818 34.936 25.6756 35.4953C25.2198 37.2854 24.1567 38.542 22.916 38.542C19.826 38.542 17.6446 34.5 14.5545 34.5H10C6.68629 34.5 4 37.1863 4 40.5C4 43.8137 6.68629 46.5 10 46.5H40C43.3137 46.5 46 43.8137 46 40.5V36.6977Z" fill="#000AFF"/>
</svg>
