<svg width="306"  height="52" viewBox="0 0 306 52" fill="none" xmlns="http://www.w3.org/2000/svg">
<path d="M265.764 44.8944L269.12 37.4487C271.109 38.7878 273.408 39.9038 276.011 40.8L276.011 40.8001L276.02 40.8031C278.9 41.7321 281.807 42.1975 284.738 42.1975C286.955 42.1975 288.77 41.9905 290.162 41.5584L290.162 41.5586L290.172 41.5553C291.595 41.0811 292.695 40.423 293.414 39.5489C294.128 38.683 294.488 37.6799 294.488 36.559C294.488 35.1281 293.915 33.9721 292.78 33.1443C291.712 32.3203 290.327 31.6819 288.647 31.2144C286.988 30.7079 285.149 30.2485 283.132 29.8357C281.184 29.3825 279.213 28.8386 277.218 28.2039C275.289 27.5757 273.521 26.7695 271.913 25.7867C270.335 24.8228 269.043 23.5537 268.034 21.9745C267.092 20.431 266.602 18.429 266.602 15.9361C266.602 13.2905 267.306 10.8969 268.713 8.74246C270.158 6.55255 272.315 4.80504 275.213 3.51205L275.213 3.51206L275.216 3.51061C278.147 2.17858 281.839 1.5 286.314 1.5C289.288 1.5 292.216 1.8604 295.1 2.5813L295.1 2.58135L295.107 2.58304C297.829 3.22094 300.238 4.17833 302.341 5.45082L299.287 12.9621C297.182 11.8063 295.072 10.9458 292.956 10.384C290.678 9.73371 288.441 9.40687 286.246 9.40687C284.065 9.40687 282.243 9.6613 280.798 10.1911C279.376 10.7124 278.295 11.4206 277.622 12.3491C276.96 13.2184 276.633 14.2388 276.633 15.388C276.633 16.7814 277.212 17.9304 278.335 18.7983L278.34 18.8027L278.346 18.807C279.414 19.5835 280.798 20.1986 282.48 20.6658C284.133 21.1247 285.944 21.5832 287.914 22.0413L287.916 22.0419C289.914 22.4961 291.89 23.0184 293.843 23.6088L293.846 23.6097C295.818 24.1922 297.604 24.9745 299.208 25.9548C300.785 26.9183 302.052 28.186 303.016 29.7627L303.016 29.7628L303.021 29.7712C304.008 31.315 304.518 33.2929 304.518 35.7368C304.518 38.332 303.795 40.7013 302.343 42.8571C300.898 45.0027 298.717 46.7531 295.768 48.0938L295.765 48.095C292.882 49.4254 289.192 50.1044 284.67 50.1044C280.878 50.1044 277.248 49.6081 273.779 48.6171C270.475 47.6301 267.809 46.3854 265.764 44.8944Z" stroke="#c3c3c3"/>
<path d="M214.506 1.32224H214.006V1.82224V28.6799C214.006 35.8053 215.951 41.3623 219.91 45.2735C223.863 49.1797 229.324 51.1045 236.225 51.1045C243.126 51.1045 248.587 49.1797 252.54 45.2735C256.499 41.3623 258.444 35.8053 258.444 28.6799V1.82224V1.32224H257.944H246.982H246.482V1.82224V28.2688C246.482 32.7885 245.552 35.9216 243.807 37.794C242.05 39.6796 239.569 40.6495 236.293 40.6495C233.018 40.6495 230.537 39.6796 228.78 37.794C227.035 35.9216 226.105 32.7885 226.105 28.2688V1.82224V1.32224H225.605H214.506Z" stroke="#c3c3c3"/>
<path d="M177.36 49.2887L177.36 49.2887L177.369 49.2918C180.626 50.5017 184.134 51.1044 187.888 51.1044C192.149 51.1044 195.987 50.3634 199.393 48.8703C202.844 47.3778 205.741 45.206 208.076 42.3571L208.375 41.9925L208.028 41.6727L200.903 35.0953L200.521 34.7435L200.184 35.1373C198.58 37.0086 196.808 38.4005 194.871 39.3259C192.932 40.2064 190.813 40.6494 188.505 40.6494C186.322 40.6494 184.329 40.2932 182.52 39.5874C180.71 38.8808 179.147 37.8675 177.828 36.548C176.507 35.2274 175.47 33.6633 174.718 31.8504C174.014 30.0442 173.658 28.0302 173.658 25.8022C173.658 23.5742 174.014 21.5603 174.718 19.7541C175.47 17.9411 176.507 16.377 177.828 15.0564C179.147 13.7369 180.71 12.7237 182.52 12.017C184.329 11.3112 186.322 10.955 188.505 10.955C190.811 10.955 192.929 11.42 194.867 12.345L194.867 12.3451L194.875 12.349C196.813 13.2296 198.584 14.5767 200.188 16.4031L200.526 16.7882L200.903 16.4406L208.028 9.86319L208.375 9.54342L208.076 9.17882C205.74 6.32933 202.842 4.1798 199.39 2.73287C195.985 1.24093 192.171 0.5 187.957 0.5C184.157 0.5 180.647 1.1256 177.432 2.38311C174.222 3.5932 171.402 5.34034 168.978 7.62457L168.978 7.62456L168.975 7.62791C166.597 9.91228 164.732 12.5931 163.382 15.6665L163.382 15.6665L163.38 15.6723C162.072 18.7548 161.421 22.1336 161.421 25.8022C161.421 29.4709 162.072 32.8496 163.38 35.9321L163.379 35.9321L163.382 35.9379C164.732 39.0113 166.597 41.6921 168.975 43.9765C171.354 46.2622 174.151 48.0326 177.36 49.2887Z" stroke="#c3c3c3"/>
<path d="M106.389 49.5788L106.075 50.2823H106.846H118.219H118.553L118.681 49.9743L122.827 40.0051H144.391L148.52 49.9737L148.648 50.2823H148.982H160.629H161.401L161.086 49.5782L139.641 1.61814L139.509 1.32224H139.184H128.222H127.898L127.765 1.61868L106.389 49.5788ZM133.63 14.0272L140.486 30.5779H126.747L133.63 14.0272Z" stroke="#c3c3c3"/>
<path d="M60.2598 49.7823V50.2823H60.7598H85.562C91.9124 50.2823 96.8056 49.1342 100.169 46.7654L100.173 46.7627C103.551 44.336 105.246 40.9623 105.246 36.6961C105.246 33.83 104.564 31.3747 103.173 29.3582C101.834 27.3523 99.95 25.8548 97.5407 24.8619C97.4285 24.8136 97.3155 24.7663 97.2018 24.7202C98.7038 23.7758 99.9428 22.5856 100.913 21.149L100.913 21.149L100.916 21.1442C102.209 19.1803 102.848 16.8896 102.848 14.2919C102.848 10.3856 101.241 7.22422 98.058 4.84832C94.9184 2.47056 90.2689 1.32224 84.1917 1.32224H60.7598H60.2598V1.82224V49.7823ZM72.2906 40.9236V30.0706H84.7398C87.5737 30.0706 89.6244 30.568 90.9654 31.4899L90.9727 31.4949L90.9802 31.4997C92.3232 32.3544 93.0096 33.6673 93.0096 35.5313C93.0096 37.4452 92.3201 38.778 90.9819 39.6304C89.6366 40.4705 87.5784 40.9236 84.7398 40.9236H72.2906ZM82.8214 20.9859H72.2906V10.681H82.8214C85.4694 10.681 87.4092 11.1544 88.7073 12.0338L88.7149 12.0389L88.7227 12.0438C90.0236 12.8569 90.6802 14.081 90.6802 15.7992C90.6802 17.5678 90.0192 18.8399 88.715 19.6965C87.4149 20.5346 85.4715 20.9859 82.8214 20.9859Z" stroke="#c3c3c3"/>
<path d="M1.54331 49.5788L1.22973 50.2823H2H13.3734H13.707L13.8351 49.9743L17.9808 40.0051H39.5451L43.6744 49.9737L43.8023 50.2823H44.1363H55.7838H56.5551L56.2402 49.5782L34.7952 1.61814L34.6629 1.32224H34.3388H23.3765H23.0519L22.9198 1.61868L1.54331 49.5788ZM28.784 14.0272L35.6399 30.5779H21.9012L28.784 14.0272Z" stroke="#c3c3c3"/>
</svg>
