<svg width="174" height="35" viewBox="0 0 174 35" fill="none" xmlns="http://www.w3.org/2000/svg">
<path d="M14.955 2.05C17.775 2.05 20.235 2.605 22.335 3.715C24.435 4.825 26.055 6.475 27.195 8.665C28.365 10.825 28.95 13.45 28.95 16.54V34H23.1V25.9H6.72V34H0.96V16.54C0.96 13.45 1.53 10.825 2.67 8.665C3.84 6.475 5.475 4.825 7.575 3.715C9.675 2.605 12.135 2.05 14.955 2.05ZM23.1 20.995V16C23.1 13.09 22.38 10.9 20.94 9.43C19.5 7.93 17.49 7.18 14.91 7.18C12.33 7.18 10.32 7.93 8.88 9.43C7.44 10.9 6.72 13.09 6.72 16V20.995H23.1ZM49.9133 9.7C52.2533 9.7 54.3383 10.21 56.1683 11.23C58.0283 12.25 59.4833 13.69 60.5333 15.55C61.5833 17.41 62.1083 19.555 62.1083 21.985C62.1083 24.415 61.5833 26.575 60.5333 28.465C59.4833 30.325 58.0283 31.765 56.1683 32.785C54.3383 33.805 52.2533 34.315 49.9133 34.315C48.2633 34.315 46.7483 34.03 45.3683 33.46C44.0183 32.89 42.8783 32.035 41.9483 30.895V34H36.5933V0.609998H42.2183V12.895C43.1783 11.845 44.3033 11.05 45.5933 10.51C46.9133 9.97 48.3533 9.7 49.9133 9.7ZM49.2833 29.5C51.3533 29.5 53.0483 28.81 54.3683 27.43C55.7183 26.05 56.3933 24.235 56.3933 21.985C56.3933 19.735 55.7183 17.92 54.3683 16.54C53.0483 15.16 51.3533 14.47 49.2833 14.47C47.9333 14.47 46.7183 14.785 45.6383 15.415C44.5583 16.015 43.7033 16.885 43.0733 18.025C42.4433 19.165 42.1283 20.485 42.1283 21.985C42.1283 23.485 42.4433 24.805 43.0733 25.945C43.7033 27.085 44.5583 27.97 45.6383 28.6C46.7183 29.2 47.9333 29.5 49.2833 29.5ZM90.9329 9.97V34H85.5779V30.895C84.6479 32.035 83.4929 32.89 82.1129 33.46C80.7629 34.03 79.2629 34.315 77.6129 34.315C75.2729 34.315 73.1729 33.805 71.3129 32.785C69.4829 31.765 68.0429 30.325 66.9929 28.465C65.9729 26.605 65.4629 24.445 65.4629 21.985C65.4629 19.525 65.9729 17.38 66.9929 15.55C68.0429 13.69 69.4829 12.25 71.3129 11.23C73.1729 10.21 75.2729 9.7 77.6129 9.7C79.1729 9.7 80.5979 9.97 81.8879 10.51C83.2079 11.05 84.3479 11.845 85.3079 12.895V9.97H90.9329ZM78.2429 29.5C80.3129 29.5 82.0229 28.81 83.3729 27.43C84.7229 26.05 85.3979 24.235 85.3979 21.985C85.3979 19.735 84.7229 17.92 83.3729 16.54C82.0229 15.16 80.3129 14.47 78.2429 14.47C76.1729 14.47 74.4629 15.16 73.1129 16.54C71.7929 17.92 71.1329 19.735 71.1329 21.985C71.1329 24.235 71.7929 26.05 73.1129 27.43C74.4629 28.81 76.1729 29.5 78.2429 29.5ZM109.318 34.315C106.828 34.315 104.593 33.79 102.613 32.74C100.633 31.69 99.0875 30.235 97.9775 28.375C96.8675 26.485 96.3125 24.355 96.3125 21.985C96.3125 19.615 96.8675 17.5 97.9775 15.64C99.0875 13.78 100.618 12.325 102.568 11.275C104.548 10.225 106.798 9.7 109.318 9.7C111.688 9.7 113.758 10.18 115.528 11.14C117.328 12.1 118.678 13.48 119.578 15.28L115.258 17.8C114.568 16.69 113.698 15.865 112.648 15.325C111.628 14.755 110.503 14.47 109.273 14.47C107.173 14.47 105.433 15.16 104.053 16.54C102.673 17.89 101.983 19.705 101.983 21.985C101.983 24.265 102.658 26.095 104.008 27.475C105.388 28.825 107.143 29.5 109.273 29.5C110.503 29.5 111.628 29.23 112.648 28.69C113.698 28.12 114.568 27.28 115.258 26.17L119.578 28.69C118.648 30.49 117.283 31.885 115.483 32.875C113.713 33.835 111.658 34.315 109.318 34.315ZM147.705 9.97V34H142.35V30.94C141.45 32.02 140.325 32.86 138.975 33.46C137.625 34.03 136.17 34.315 134.61 34.315C131.4 34.315 128.865 33.43 127.005 31.66C125.175 29.86 124.26 27.205 124.26 23.695V9.97H129.885V22.93C129.885 25.09 130.365 26.71 131.325 27.79C132.315 28.84 133.71 29.365 135.51 29.365C137.52 29.365 139.11 28.75 140.28 27.52C141.48 26.26 142.08 24.46 142.08 22.12V9.97H147.705ZM162.495 34.315C160.545 34.315 158.64 34.06 156.78 33.55C154.92 33.04 153.435 32.395 152.325 31.615L154.485 27.34C155.565 28.06 156.855 28.645 158.355 29.095C159.885 29.515 161.385 29.725 162.855 29.725C166.215 29.725 167.895 28.84 167.895 27.07C167.895 26.23 167.46 25.645 166.59 25.315C165.75 24.985 164.385 24.67 162.495 24.37C160.515 24.07 158.895 23.725 157.635 23.335C156.405 22.945 155.325 22.27 154.395 21.31C153.495 20.32 153.045 18.955 153.045 17.215C153.045 14.935 153.99 13.12 155.88 11.77C157.8 10.39 160.38 9.7 163.62 9.7C165.27 9.7 166.92 9.895 168.57 10.285C170.22 10.645 171.57 11.14 172.62 11.77L170.46 16.045C168.42 14.845 166.125 14.245 163.575 14.245C161.925 14.245 160.665 14.5 159.795 15.01C158.955 15.49 158.535 16.135 158.535 16.945C158.535 17.845 158.985 18.49 159.885 18.88C160.815 19.24 162.24 19.585 164.16 19.915C166.08 20.215 167.655 20.56 168.885 20.95C170.115 21.34 171.165 22 172.035 22.93C172.935 23.86 173.385 25.18 173.385 26.89C173.385 29.14 172.41 30.94 170.46 32.29C168.51 33.64 165.855 34.315 162.495 34.315Z" fill="#000AFF"/>
</svg>
