<svg width="201" height="61" viewBox="0 0 201 61" fill="none" xmlns="http://www.w3.org/2000/svg">
<path d="M11 55.5C4.92487 55.5 0 50.5751 0 44.5V16.5C0 10.4249 4.92487 5.5 11 5.5H39C45.0751 5.5 50 10.4249 50 16.5V44.5C50 50.5751 45.0751 55.5 39 55.5H11ZM46 15.5C46 12.1863 43.3137 9.5 40 9.5H10C6.68629 9.5 4 12.1863 4 15.5V19.3494C4 20.5372 4.96285 21.5 6.15058 21.5V21.5C7.22869 21.5 8.09513 20.6769 8.51805 19.6852C9.06077 18.4126 9.95048 17.582 10.958 17.582C12.1581 17.582 13.1902 18.7573 13.6684 20.4538C13.8343 21.0423 14.339 21.5 14.9504 21.5V21.5C15.5641 21.5 16.07 21.0392 16.2337 20.4478C16.7087 18.732 17.7481 17.542 18.956 17.542V17.542C22.0059 17.542 24.1735 21.5 27.2234 21.5H30.6863C33.7363 21.5 35.904 17.542 38.954 17.542V17.542C39.9638 17.542 40.8543 18.3724 41.3977 19.6447C41.8299 20.6566 42.7122 21.5 43.8126 21.5V21.5C45.0207 21.5 46 20.5207 46 19.3126V15.5ZM46 25.6689C46 24.4711 45.0289 23.5 43.8311 23.5V23.5C42.7302 23.5 41.8495 24.3494 41.4308 25.3675C40.8908 26.6803 39.9848 27.542 38.956 27.542V27.542C35.866 27.542 33.6846 23.5 30.5945 23.5H27.3201C24.2303 23.5 22.0478 27.542 18.958 27.542V27.542C17.7266 27.542 16.6703 26.3043 16.2088 24.5356C16.0571 23.9541 15.5628 23.5 14.9618 23.5V23.5C14.3584 23.5 13.8629 23.9575 13.7136 24.5421C13.2575 26.3287 12.1968 27.582 10.958 27.582C9.91274 27.582 8.99423 26.6897 8.45877 25.3376C8.06137 24.3341 7.19746 23.5 6.11816 23.5V23.5C4.94833 23.5 4 24.4483 4 25.6182V30.5C4 34.366 7.13401 37.5 11 37.5H14.6487C17.6985 37.5 19.8663 33.542 22.916 33.542V33.542C24.1424 33.542 25.1966 34.7701 25.6616 36.5276C25.8065 37.0752 26.2745 37.5 26.8409 37.5V37.5C27.4142 37.5 27.8859 37.0653 28.0236 36.5087C28.4724 34.6946 29.5418 33.416 30.794 33.416C32.0164 33.416 33.0663 34.641 33.5322 36.3942C33.6968 37.0136 34.2226 37.5 34.8634 37.5V37.5C35.4996 37.5 36.0228 37.0201 36.1925 36.4069C36.6676 34.6899 37.7089 33.5 38.918 33.5C39.9327 33.5 40.8292 34.338 41.372 35.6222C41.8044 36.6451 42.6929 37.5 43.8034 37.5V37.5C45.0166 37.5 46 36.5166 46 35.3034V25.6689ZM46 41.6977C46 40.484 45.016 39.5 43.8023 39.5V39.5C42.6913 39.5 41.8023 40.3553 41.3694 41.3785C40.8265 42.6617 39.9303 43.5 38.916 43.5C37.712 43.5 36.6743 42.3187 36.1965 40.6141C36.0215 39.9895 35.4883 39.5 34.8396 39.5V39.5C34.1964 39.5 33.6662 39.9817 33.4861 40.5992C33.0003 42.2655 31.9777 43.416 30.792 43.416C29.5772 43.416 28.5322 42.2084 28.0613 40.4758C27.9118 39.9258 27.4403 39.5 26.8703 39.5V39.5C26.2932 39.5 25.818 39.936 25.6756 40.4953C25.2198 42.2855 24.1567 43.542 22.916 43.542V43.542C19.826 43.542 17.6446 39.5 14.5545 39.5H10C6.68629 39.5 4 42.1863 4 45.5V45.5C4 48.8137 6.68629 51.5 10 51.5H40C43.3137 51.5 46 48.8137 46 45.5V41.6977Z" fill="#000AFF"/>
<path d="M56.06 42.96L63.305 21.99L60.47 21.72V18.075H70.775L79.955 44.04H80L82.565 44.175V48H70.955V44.355L72.665 44.22C73.175 44.16 73.52 44.04 73.7 43.86C73.88 43.68 73.895 43.35 73.745 42.87L72.8 40.08H62.27L60.92 44.04L63.62 44.175V48H53.225V44.355L54.71 44.22C55.34 44.16 55.79 43.74 56.06 42.96ZM67.535 23.115L63.35 35.94H71.72L67.67 23.115H67.535ZM85.8205 46.65V20.82C85.8205 20.13 85.4455 19.77 84.6955 19.74L83.1205 19.65V15.915H91.0405V26.58C92.3905 25.32 94.2055 24.69 96.4855 24.69C99.3055 24.69 101.54 25.65 103.19 27.57C104.84 29.46 105.665 32.13 105.665 35.58C105.665 44.25 102.035 48.585 94.7755 48.585C93.2155 48.585 91.5655 48.39 89.8255 48C88.1155 47.64 86.7805 47.19 85.8205 46.65ZM91.0405 32.07V43.725C92.1805 44.325 93.5005 44.625 95.0005 44.625C98.4205 44.625 100.13 41.85 100.13 36.3C100.13 31.23 98.4505 28.695 95.0905 28.695C94.0105 28.695 93.0655 29.01 92.2555 29.64C91.4455 30.27 91.0405 31.08 91.0405 32.07ZM129.05 26.265V43.005C129.05 43.485 129.125 43.815 129.275 43.995C129.455 44.175 129.755 44.28 130.175 44.31L131.615 44.4V48H124.46V45.39L124.325 45.345C122.825 47.505 120.77 48.585 118.16 48.585C115.1 48.585 112.835 47.61 111.365 45.66C109.895 43.71 109.16 41.04 109.16 37.65C109.16 33.57 110.15 30.39 112.13 28.11C114.11 25.83 117.08 24.69 121.04 24.69C123.59 24.69 126.26 25.215 129.05 26.265ZM123.83 40.845V29.19C122.99 28.8 121.835 28.605 120.365 28.605C118.355 28.605 116.9 29.415 116 31.035C115.1 32.655 114.65 34.8 114.65 37.47C114.65 42.33 116.21 44.76 119.33 44.76C120.65 44.76 121.73 44.37 122.57 43.59C123.41 42.78 123.83 41.865 123.83 40.845ZM139.823 36.435C139.823 38.985 140.303 40.965 141.263 42.375C142.223 43.785 143.603 44.49 145.403 44.49C147.233 44.49 149.033 43.845 150.803 42.555L152.738 46.02C150.608 47.76 147.938 48.63 144.728 48.63C141.518 48.63 138.983 47.625 137.123 45.615C135.293 43.575 134.378 40.575 134.378 36.615C134.378 32.655 135.428 29.685 137.528 27.705C139.658 25.695 142.043 24.69 144.683 24.69C147.353 24.69 149.828 25.305 152.108 26.535V32.385L147.968 32.7V30.54C147.968 29.73 147.668 29.235 147.068 29.055C146.498 28.845 145.898 28.74 145.268 28.74C141.638 28.74 139.823 31.305 139.823 36.435ZM178.97 44.445V48H171.68V45.075C170.03 47.415 167.6 48.585 164.39 48.585C159.74 48.585 157.415 45.99 157.415 40.8V30.405C157.415 29.595 157.04 29.175 156.29 29.145L154.85 29.055V25.365H162.77V39.63C162.77 41.22 162.995 42.42 163.445 43.23C163.895 44.04 164.825 44.445 166.235 44.445C167.645 44.445 168.77 44.01 169.61 43.14C170.48 42.27 170.915 41.22 170.915 39.99V30.495C170.915 30.015 170.825 29.685 170.645 29.505C170.495 29.295 170.21 29.175 169.79 29.145L168.35 29.055V25.365H176.27V43.005C176.27 43.485 176.345 43.815 176.495 43.995C176.645 44.145 176.945 44.25 177.395 44.31L178.97 44.445ZM193.057 28.785C192.337 28.515 191.467 28.38 190.447 28.38C189.427 28.38 188.602 28.62 187.972 29.1C187.372 29.55 187.072 30.12 187.072 30.81C187.072 31.47 187.177 31.995 187.387 32.385C187.627 32.745 187.987 33.06 188.467 33.33C189.217 33.72 190.117 34.065 191.167 34.365C192.217 34.635 192.997 34.86 193.507 35.04C194.017 35.19 194.647 35.46 195.397 35.85C196.177 36.24 196.762 36.66 197.152 37.11C198.202 38.22 198.727 39.645 198.727 41.385C198.727 43.635 197.902 45.405 196.252 46.695C194.632 47.955 192.562 48.585 190.042 48.585C186.382 48.585 183.622 48.12 181.762 47.19V40.935L185.812 40.62V42.78C185.812 44.1 187.072 44.76 189.592 44.76C192.112 44.76 193.372 43.845 193.372 42.015C193.372 41.355 193.147 40.815 192.697 40.395C192.277 39.975 191.857 39.69 191.437 39.54C191.017 39.39 190.507 39.24 189.907 39.09C189.337 38.94 188.767 38.79 188.197 38.64C187.657 38.49 187.057 38.295 186.397 38.055C185.767 37.785 185.062 37.41 184.282 36.93C182.752 35.94 181.987 34.29 181.987 31.98C181.987 29.64 182.812 27.84 184.462 26.58C186.112 25.32 188.182 24.69 190.672 24.69C193.192 24.69 195.682 25.29 198.142 26.49V31.89L194.092 32.205V30.315C194.092 29.565 193.747 29.055 193.057 28.785Z" fill="#000AFF"/>
</svg>
