	<svg
			className="w-[30px] h-[30px]"
			width="60"
			height="60"
			viewBox="0 0 61 60"
			fill="none"
			xmlns="http://www.w3.org/2000/svg"
		>
			<path
				fill-rule="evenodd"
				clip-rule="evenodd"
				d="M60 30C60 46.5685 46.5685 60 30 60C26.9253 60 23.9587 59.5375 21.1659 58.6782C26.3749 56.3264 30 51.0865 30 45C30 36.7157 23.2843 30 15 30C8.91346 30 3.67362 33.6251 1.32183 38.8341C0.462538 36.0413 0 33.0747 0 30C0 13.4315 13.4315 0 30 0C33.0747 0 36.0413 0.462538 38.8341 1.32183C33.6251 3.67362 30 8.91346 30 15C30 23.2843 36.7157 30 45 30C51.0865 30 56.3264 26.3749 58.6782 21.1659C59.5375 23.9587 60 26.9253 60 30Z"
				fill="#3C44FF"
			/>
			<path
				fill-rule="evenodd"
				clip-rule="evenodd"
				d="M51.6396 9.21319C63.3553 20.9289 63.3553 39.9239 51.6396 51.6396C49.4655 53.8137 47.0407 55.5844 44.4583 56.9516C46.4786 51.6053 45.3368 45.3368 41.033 41.033C35.1751 35.1751 25.6777 35.1751 19.8198 41.033C15.516 45.3368 14.3742 51.6053 16.3945 56.9516C13.8121 55.5844 11.3873 53.8137 9.2132 51.6396C-2.50253 39.9239 -2.50253 20.9289 9.2132 9.21319C11.3873 7.03908 13.8121 5.26842 16.3945 3.90122C14.3742 9.24746 15.516 15.516 19.8198 19.8198C25.6777 25.6777 35.1751 25.6777 41.033 19.8198C45.3368 15.516 46.4786 9.24746 44.4583 3.90122C47.0407 5.26842 49.4655 7.03908 51.6396 9.21319Z"
				fill="#3C44FF"
				fill-opacity="0.5"
			/>
		</svg>