<?xml version="1.0" standalone="no"?>
<!DOCTYPE svg PUBLIC "-//W3C//DTD SVG 20010904//EN"
 "http://www.w3.org/TR/2001/REC-SVG-20010904/DTD/svg10.dtd">
<svg version="1.0" xmlns="http://www.w3.org/2000/svg"
 width="3319.000000pt" height="3319.000000pt" viewBox="0 0 3319.000000 3319.000000"
 preserveAspectRatio="xMidYMid meet">
<metadata>
Created by potrace 1.14, written by Peter Selinger 2001-2017
</metadata>
<g transform="translate(0.000000,3319.000000) scale(0.100000,-0.100000)"
fill="#000000" stroke="none">
<path d="M15217 33183 c-1 -1 -40 -4 -87 -7 -47 -4 -96 -9 -110 -11 -14 -2
-59 -7 -100 -10 -41 -4 -88 -8 -105 -10 -16 -2 -55 -7 -86 -10 -31 -3 -65 -7
-75 -9 -11 -2 -48 -7 -84 -11 -62 -6 -331 -42 -377 -50 -12 -2 -57 -9 -100
-15 -43 -6 -89 -13 -103 -16 -14 -2 -54 -9 -90 -14 -65 -11 -372 -65 -420 -75
-14 -3 -40 -8 -59 -11 -18 -3 -41 -7 -50 -9 -16 -3 -298 -63 -336 -71 -11 -2
-30 -6 -43 -8 -13 -3 -31 -7 -40 -10 -9 -3 -28 -7 -42 -10 -22 -4 -59 -12
-185 -42 -16 -4 -34 -8 -40 -9 -5 -2 -30 -8 -55 -15 -25 -7 -53 -14 -64 -16
-23 -4 -361 -93 -401 -105 -16 -5 -117 -34 -223 -64 -233 -67 -373 -111 -687
-217 -206 -69 -597 -210 -660 -238 -11 -5 -63 -25 -115 -46 -52 -20 -114 -45
-137 -55 -23 -11 -45 -19 -48 -19 -4 0 -23 -7 -43 -16 -21 -9 -46 -20 -57 -24
-243 -103 -273 -117 -495 -217 -265 -121 -334 -153 -350 -163 -8 -6 -26 -15
-40 -21 -116 -49 -582 -294 -905 -474 -158 -89 -463 -271 -635 -379 -41 -26
-84 -53 -95 -59 -160 -97 -878 -590 -1010 -694 -43 -33 -39 -31 -155 -118
-114 -86 -396 -309 -444 -350 -6 -5 -47 -39 -91 -75 -44 -36 -87 -72 -96 -80
-8 -8 -40 -35 -69 -60 -57 -47 -111 -94 -219 -189 -35 -31 -73 -64 -85 -74
-28 -25 -183 -166 -276 -252 -121 -112 -717 -710 -826 -829 -54 -59 -110 -120
-124 -135 -14 -15 -54 -60 -90 -100 -36 -40 -74 -83 -85 -95 -11 -12 -42 -48
-70 -80 -27 -32 -58 -68 -68 -80 -10 -11 -37 -43 -60 -71 -23 -27 -67 -79 -98
-115 -57 -68 -369 -457 -404 -506 -11 -15 -25 -32 -30 -38 -6 -6 -22 -27 -35
-46 -13 -19 -27 -37 -30 -40 -8 -7 -61 -79 -89 -120 -13 -19 -26 -37 -30 -40
-3 -3 -15 -18 -27 -35 -11 -16 -68 -95 -125 -175 -97 -136 -245 -350 -279
-404 -8 -13 -31 -48 -51 -78 -86 -126 -251 -386 -325 -511 -284 -476 -430
-739 -624 -1122 -119 -235 -257 -523 -355 -740 -7 -16 -25 -55 -38 -85 -55
-121 -238 -566 -307 -745 -202 -528 -401 -1139 -529 -1625 -23 -85 -48 -177
-56 -205 -28 -94 -134 -557 -180 -780 -33 -163 -85 -441 -91 -484 -3 -25 -7
-48 -9 -52 -3 -3 -7 -28 -10 -55 -3 -27 -8 -56 -10 -64 -4 -14 -37 -224 -50
-320 -3 -25 -8 -56 -10 -70 -2 -14 -7 -45 -10 -70 -3 -25 -8 -56 -10 -70 -2
-14 -7 -50 -10 -80 -6 -58 -12 -105 -20 -155 -2 -16 -7 -61 -10 -100 -4 -38
-8 -81 -10 -95 -2 -14 -6 -54 -10 -90 -3 -36 -8 -81 -10 -100 -2 -19 -7 -73
-11 -120 -3 -47 -7 -100 -9 -117 l-3 -33 4508 0 4508 0 8 43 c4 23 8 44 9 47
1 3 5 28 10 55 5 28 10 52 10 55 2 9 25 115 30 135 42 196 132 544 154 600 5
11 36 106 70 210 85 259 261 701 327 818 8 15 12 27 8 27 -3 0 -2 6 4 13 5 6
50 91 98 187 49 96 119 229 157 295 38 66 78 135 89 154 11 19 35 59 54 88 19
29 34 55 34 58 0 8 247 372 310 457 36 47 72 96 80 108 8 13 20 28 25 34 6 6
62 76 126 156 64 80 127 156 139 170 230 266 518 558 750 760 41 36 80 70 86
75 84 76 291 241 444 354 120 89 458 318 530 359 35 20 212 124 240 142 26 16
325 175 355 189 11 5 79 37 150 71 135 65 363 164 475 207 185 71 437 160 550
192 230 67 356 102 430 119 158 38 307 72 345 78 21 3 47 8 59 10 60 12 83 16
101 19 11 1 23 3 28 4 4 0 7 2030 7 4510 l0 4509 -46 -1 c-25 -1 -46 -3 -47
-4z"/>
<path d="M17870 28680 c0 -3601 3 -4510 13 -4511 75 -4 602 -124 792 -180 321
-94 706 -230 882 -310 24 -10 45 -19 47 -19 23 0 545 -255 686 -335 41 -23 93
-53 115 -65 94 -53 290 -174 399 -246 65 -44 126 -83 134 -89 9 -5 21 -14 26
-18 6 -4 72 -52 146 -105 74 -54 144 -105 155 -114 11 -9 83 -67 160 -129 77
-61 142 -115 145 -118 3 -3 41 -37 85 -76 144 -126 178 -158 370 -350 209
-210 227 -229 369 -395 55 -63 111 -129 125 -145 80 -93 348 -448 364 -482 6
-13 14 -23 19 -23 4 0 8 -6 8 -14 0 -8 4 -16 9 -18 8 -3 148 -213 207 -311 16
-27 36 -61 45 -75 16 -27 143 -249 187 -327 90 -162 255 -513 349 -745 163
-400 347 -1000 398 -1297 3 -18 12 -61 19 -95 8 -35 17 -81 20 -103 4 -22 9
-55 12 -72 l6 -33 4510 0 4510 0 -7 96 c-3 52 -8 103 -10 113 -2 10 -6 53 -10
97 -4 43 -8 93 -10 109 -1 17 -6 62 -10 100 -3 39 -8 81 -10 95 -4 25 -11 76
-20 155 -3 22 -7 65 -10 95 -3 30 -8 66 -11 80 -2 14 -6 36 -9 49 -2 13 -7 49
-10 80 -7 61 -12 92 -20 131 -3 14 -7 41 -9 60 -3 19 -12 80 -21 135 -22 139
-24 149 -41 245 -9 47 -18 96 -20 110 -3 14 -7 36 -9 50 -3 14 -7 36 -10 50
-17 88 -68 332 -111 530 -8 36 -19 87 -24 113 -5 27 -12 52 -14 56 -3 4 -7 21
-10 37 -5 27 -76 308 -111 437 -8 31 -21 81 -29 110 -18 68 -47 167 -86 297
-17 58 -38 129 -45 157 -8 29 -62 193 -119 365 -94 284 -150 441 -238 673 -43
113 -200 504 -243 605 -20 47 -49 114 -65 150 -28 67 -103 232 -181 400 -59
129 -336 684 -369 740 -15 25 -44 79 -65 120 -21 41 -45 83 -53 93 -8 9 -12
17 -8 17 4 0 -1 12 -12 28 -10 15 -33 54 -52 87 -52 93 -140 247 -185 323 -6
9 -37 62 -70 117 -100 170 -477 759 -495 775 -3 3 -41 57 -85 120 -88 129
-314 443 -387 538 -26 34 -71 92 -100 130 -66 86 -190 244 -203 258 -5 6 -23
28 -40 50 -40 50 -177 218 -184 224 -4 3 -38 43 -77 90 -39 47 -80 95 -90 106
-11 12 -41 48 -69 80 -27 32 -69 78 -92 103 -23 26 -50 55 -60 67 -261 301
-953 993 -1243 1244 -14 12 -41 36 -60 53 -19 18 -69 61 -110 97 -41 36 -77
67 -80 70 -3 3 -34 30 -70 60 -36 30 -67 57 -70 60 -3 3 -30 25 -60 50 -30 25
-57 47 -60 50 -3 3 -52 44 -110 90 -58 47 -112 90 -120 97 -8 7 -64 51 -125
99 -60 47 -119 93 -130 102 -11 10 -63 48 -115 87 -52 38 -99 73 -105 78 -10
8 -47 35 -175 129 -41 30 -102 73 -135 96 -33 23 -80 56 -105 73 -303 215
-969 635 -1280 807 -25 14 -74 42 -110 62 -65 37 -143 79 -340 184 -111 59
-580 293 -690 344 -191 89 -228 106 -265 122 -22 10 -65 29 -95 43 -30 13
-127 55 -215 92 -88 37 -178 75 -200 85 -45 20 -494 193 -570 220 -363 129
-680 235 -890 298 -55 17 -138 42 -185 56 -324 97 -1073 282 -1335 330 -43 8
-73 14 -135 28 -30 6 -62 12 -70 13 -20 2 -100 16 -125 22 -33 7 -66 13 -130
24 -33 6 -71 12 -85 15 -14 2 -52 9 -85 14 -33 5 -71 12 -85 14 -14 3 -61 10
-105 16 -44 6 -91 13 -105 15 -14 3 -47 7 -75 10 -27 3 -57 8 -65 10 -8 2 -37
7 -65 10 -53 6 -108 12 -165 20 -19 3 -55 7 -80 10 -25 2 -65 7 -90 10 -69 8
-119 13 -195 20 -38 4 -81 8 -95 10 -14 2 -61 7 -105 10 -44 3 -104 8 -132 11
l-53 4 0 -4510z"/>
<path d="M5 15253 c3 -38 7 -88 10 -113 2 -25 7 -76 10 -115 3 -38 8 -83 10
-100 2 -16 7 -61 10 -100 3 -38 8 -81 10 -95 3 -14 7 -52 11 -85 3 -33 8 -67
9 -75 2 -9 6 -43 10 -75 7 -62 10 -83 19 -150 3 -22 8 -56 10 -75 3 -19 15
-98 27 -175 12 -77 23 -149 24 -160 2 -11 8 -47 14 -80 6 -33 13 -76 16 -95 3
-19 13 -73 21 -120 9 -47 18 -96 20 -110 53 -302 224 -1046 301 -1310 9 -30
18 -62 19 -70 15 -90 286 -942 373 -1175 11 -27 43 -113 71 -190 79 -211 221
-569 231 -580 5 -5 9 -14 9 -21 0 -6 42 -108 94 -225 154 -352 229 -511 402
-854 72 -143 147 -289 166 -325 20 -36 51 -94 71 -130 75 -141 101 -186 121
-215 12 -16 19 -30 17 -30 -3 0 8 -19 22 -42 15 -24 27 -45 27 -47 0 -7 177
-305 280 -471 307 -496 679 -1031 1014 -1458 56 -71 112 -144 126 -162 31 -41
192 -238 200 -245 3 -3 60 -70 127 -150 67 -80 132 -157 145 -171 101 -115
156 -176 173 -195 372 -408 790 -830 1116 -1126 75 -68 187 -169 205 -185 12
-10 48 -41 80 -70 32 -28 70 -62 84 -74 14 -12 104 -87 200 -168 96 -80 180
-150 186 -156 12 -11 20 -17 218 -173 72 -56 138 -108 146 -115 8 -7 31 -23
50 -37 19 -13 37 -27 40 -30 3 -4 82 -63 175 -131 513 -376 1062 -735 1590
-1036 135 -78 184 -105 325 -181 36 -20 99 -54 140 -77 97 -53 625 -317 755
-377 285 -131 393 -179 629 -278 269 -112 243 -101 371 -150 61 -23 119 -46
130 -51 129 -57 887 -314 1191 -403 204 -60 466 -133 524 -146 19 -4 71 -18
115 -30 44 -12 98 -25 120 -30 22 -5 78 -18 125 -29 241 -59 597 -134 825
-176 157 -28 446 -77 470 -80 17 -2 62 -8 100 -15 39 -6 86 -14 105 -16 19 -2
67 -8 105 -14 39 -5 90 -12 115 -15 25 -3 56 -8 70 -10 14 -2 52 -7 85 -10 33
-3 71 -7 85 -10 14 -2 57 -7 95 -10 39 -3 81 -8 95 -10 14 -2 61 -7 105 -10
44 -3 87 -8 95 -10 8 -2 61 -6 118 -10 l102 -6 0 4510 c0 4289 -1 4511 -17
4512 -38 1 -331 61 -493 101 -720 174 -1488 484 -2085 843 -44 26 -89 53 -100
59 -145 85 -594 390 -661 451 -7 5 -24 19 -40 30 -32 23 -234 184 -250 200 -6
5 -35 30 -64 55 -383 321 -849 820 -1166 1250 -83 112 -212 296 -239 339 -5 9
-20 30 -32 48 -13 17 -23 34 -23 38 0 3 -5 11 -10 18 -13 14 -136 213 -172
277 -14 25 -42 74 -63 110 -99 172 -259 498 -380 775 -50 117 -153 388 -187
495 -11 36 -24 74 -28 85 -10 24 -48 145 -84 265 -47 161 -118 446 -152 615
-17 89 -23 122 -29 165 -3 19 -8 43 -11 53 -5 16 -229 17 -4514 17 l-4509 0 4
-67z"/>
<path d="M24155 15268 c-10 -60 -10 -64 -25 -133 -6 -27 -13 -63 -16 -80 -3
-16 -10 -48 -16 -70 -6 -22 -12 -53 -15 -70 -2 -16 -11 -52 -18 -80 -8 -27
-16 -61 -19 -75 -6 -34 -81 -306 -113 -410 -15 -47 -28 -89 -29 -95 -3 -15
-113 -327 -123 -350 -5 -11 -28 -69 -52 -130 -136 -349 -348 -779 -544 -1107
-5 -9 -25 -43 -44 -75 -19 -32 -38 -59 -43 -61 -4 -2 -8 -8 -8 -13 0 -8 -106
-175 -120 -189 -3 -3 -23 -32 -44 -65 -86 -132 -395 -539 -468 -617 -7 -7 -40
-45 -73 -83 -33 -39 -80 -92 -105 -120 -60 -67 -470 -477 -542 -542 -72 -66
-350 -299 -403 -338 -22 -17 -42 -33 -45 -36 -12 -15 -288 -213 -411 -296
-413 -278 -826 -502 -1304 -708 -267 -115 -714 -270 -985 -341 -56 -14 -299
-75 -315 -78 -11 -2 -87 -18 -169 -35 -83 -18 -165 -34 -183 -36 -19 -2 -38
-7 -43 -10 -7 -4 -10 -1602 -10 -4512 l0 -4506 88 7 c48 4 101 9 117 10 17 2
68 7 115 11 47 4 93 9 102 10 9 2 49 7 90 10 78 8 92 9 178 20 30 4 66 8 80
10 14 2 48 6 75 9 47 6 171 23 225 31 14 2 48 7 75 10 28 4 167 27 310 51 265
44 283 47 370 64 28 5 61 12 75 14 234 44 707 151 970 221 96 25 184 48 194
50 10 2 60 16 110 31 50 14 98 28 106 29 8 2 47 13 85 25 39 11 95 27 125 36
50 13 406 126 505 159 155 52 315 108 345 120 19 8 98 37 175 66 165 60 312
116 340 129 11 5 109 45 218 90 109 44 221 91 250 104 29 13 80 36 115 50 64
27 126 55 265 120 42 20 112 52 155 72 164 77 661 329 757 384 17 10 66 37
110 60 165 88 596 338 715 415 19 12 123 78 230 146 107 68 200 127 205 131 6
5 78 54 160 109 83 55 184 125 225 155 41 30 83 57 93 60 9 4 17 9 17 13 0 4
15 15 33 26 17 10 37 24 43 29 7 6 55 43 108 81 87 62 194 142 281 210 232
180 293 228 319 250 6 6 34 28 61 50 61 49 71 57 166 136 41 35 97 82 124 104
27 22 58 49 71 60 31 29 78 70 169 150 107 94 130 115 321 290 129 118 734
723 850 851 45 49 92 101 105 115 31 33 158 176 182 203 10 12 33 37 50 57 18
20 52 60 77 89 25 29 50 58 55 64 6 6 57 67 114 136 57 69 113 136 125 150 12
14 81 102 155 195 73 94 140 179 149 190 10 11 25 32 34 46 9 14 23 32 30 40
17 17 278 373 304 414 10 17 21 32 24 35 14 12 293 425 395 585 21 33 55 86
76 118 22 32 39 60 39 63 0 3 10 20 23 37 12 18 27 41 33 52 6 11 44 74 84
140 252 413 581 1024 787 1464 25 53 58 123 73 156 16 33 56 123 90 200 34 77
71 159 81 183 41 90 209 506 273 677 38 99 79 207 91 240 94 244 324 970 415
1312 42 157 69 259 74 283 4 14 31 129 61 255 30 127 64 273 75 325 38 176 51
242 55 268 2 15 6 34 9 42 3 8 7 32 10 52 3 21 10 57 15 80 5 24 12 61 15 83
4 23 9 52 11 65 4 21 17 92 40 229 2 13 7 45 11 70 4 25 8 55 10 66 3 11 7 38
10 60 2 22 7 51 9 65 2 14 9 61 15 106 6 44 12 90 14 101 3 11 7 44 10 74 4
30 9 70 12 89 2 19 6 51 8 70 2 19 7 60 10 90 4 30 9 78 12 105 2 28 7 61 9
75 3 14 7 61 10 105 3 44 7 94 9 110 3 17 7 72 11 123 l7 92 -4510 0 -4509 0
-8 -52z"/>
</g>
</svg>
